<svg width="1460" height="470" viewBox="0 0 1460 470" fill="none" xmlns="http://www.w3.org/2000/svg">
<path d="M367 132H227C199.938 132 178 153.938 178 181V321C178 348.062 199.938 370 227 370H367C394.062 370 416 348.062 416 321V181C416 153.938 394.062 132 367 132Z" fill="#101010"/>
<path d="M296.769 220.159L323.279 235.465V266.076L296.769 281.381L270.26 266.076V235.465L296.769 220.159Z" fill="white"/>
<path d="M237.996 220.159L264.506 235.465V266.076L237.996 281.381L211.487 266.076V235.465L237.996 220.159Z" fill="white"/>
<path d="M355.542 220.159L382.051 235.465V266.076L355.542 281.381L329.032 266.076V235.465L355.542 220.159Z" fill="white"/>
<path d="M326.155 171.182L352.665 186.488V217.099L326.155 232.404L299.646 217.099V186.488L326.155 171.182Z" fill="white"/>
<path d="M267.383 171.182L293.892 186.488V217.099L267.383 232.404L240.873 217.099V186.488L267.383 171.182Z" fill="white"/>
<path d="M267.383 269.137L293.892 284.442V315.053L267.383 330.358L240.873 315.053V284.442L267.383 269.137Z" fill="white"/>
<path d="M323.707 269.137L350.216 284.442V315.053L323.707 330.358L297.197 315.053V284.442L323.707 269.137Z" fill="white"/>
<path d="M496.77 303V170H561.75C578.47 170 591.01 173.167 599.37 179.5C607.857 185.833 612.1 194.193 612.1 204.58C612.1 211.547 610.39 217.627 606.97 222.82C603.55 227.887 598.863 231.813 592.91 234.6C586.957 237.387 580.117 238.78 572.39 238.78L576 230.99C584.36 230.99 591.77 232.383 598.23 235.17C604.69 237.83 609.693 241.82 613.24 247.14C616.913 252.46 618.75 258.983 618.75 266.71C618.75 278.11 614.253 287.04 605.26 293.5C596.267 299.833 583.03 303 565.55 303H496.77ZM527.36 279.82H563.27C571.25 279.82 577.267 278.553 581.32 276.02C585.5 273.36 587.59 269.18 587.59 263.48C587.59 257.907 585.5 253.79 581.32 251.13C577.267 248.343 571.25 246.95 563.27 246.95H525.08V224.53H557.95C565.423 224.53 571.123 223.263 575.05 220.73C579.103 218.07 581.13 214.08 581.13 208.76C581.13 203.567 579.103 199.703 575.05 197.17C571.123 194.51 565.423 193.18 557.95 193.18H527.36V279.82ZM690.693 304.52C679.04 304.52 668.78 302.24 659.913 297.68C651.173 293.12 644.397 286.913 639.583 279.06C634.77 271.08 632.363 262.023 632.363 251.89C632.363 241.63 634.707 232.573 639.393 224.72C644.207 216.74 650.73 210.533 658.963 206.1C667.197 201.54 676.507 199.26 686.893 199.26C696.9 199.26 705.893 201.413 713.873 205.72C721.98 209.9 728.377 215.98 733.063 223.96C737.75 231.813 740.093 241.25 740.093 252.27C740.093 253.41 740.03 254.74 739.903 256.26C739.777 257.653 739.65 258.983 739.523 260.25H656.493V242.96H723.943L712.543 248.09C712.543 242.77 711.467 238.147 709.313 234.22C707.16 230.293 704.183 227.253 700.383 225.1C696.583 222.82 692.15 221.68 687.083 221.68C682.017 221.68 677.52 222.82 673.593 225.1C669.793 227.253 666.817 230.357 664.663 234.41C662.51 238.337 661.433 243.023 661.433 248.47V253.03C661.433 258.603 662.637 263.543 665.043 267.85C667.577 272.03 671.06 275.26 675.493 277.54C680.053 279.693 685.373 280.77 691.453 280.77C696.9 280.77 701.65 279.947 705.703 278.3C709.883 276.653 713.683 274.183 717.103 270.89L732.873 287.99C728.187 293.31 722.297 297.427 715.203 300.34C708.11 303.127 699.94 304.52 690.693 304.52ZM810.556 304.52C798.903 304.52 788.643 302.24 779.776 297.68C771.036 293.12 764.26 286.913 759.446 279.06C754.633 271.08 752.226 262.023 752.226 251.89C752.226 241.63 754.57 232.573 759.256 224.72C764.07 216.74 770.593 210.533 778.826 206.1C787.06 201.54 796.37 199.26 806.756 199.26C816.763 199.26 825.756 201.413 833.736 205.72C841.843 209.9 848.24 215.98 852.926 223.96C857.613 231.813 859.956 241.25 859.956 252.27C859.956 253.41 859.893 254.74 859.766 256.26C859.64 257.653 859.513 258.983 859.386 260.25H776.356V242.96H843.806L832.406 248.09C832.406 242.77 831.33 238.147 829.176 234.22C827.023 230.293 824.046 227.253 820.246 225.1C816.446 222.82 812.013 221.68 806.946 221.68C801.88 221.68 797.383 222.82 793.456 225.1C789.656 227.253 786.68 230.357 784.526 234.41C782.373 238.337 781.296 243.023 781.296 248.47V253.03C781.296 258.603 782.5 263.543 784.906 267.85C787.44 272.03 790.923 275.26 795.356 277.54C799.916 279.693 805.236 280.77 811.316 280.77C816.763 280.77 821.513 279.947 825.566 278.3C829.746 276.653 833.546 274.183 836.966 270.89L852.736 287.99C848.05 293.31 842.16 297.427 835.066 300.34C827.973 303.127 819.803 304.52 810.556 304.52ZM925.48 305.28C914.84 305.28 904.643 303.887 894.89 301.1C885.136 298.187 877.283 294.45 871.33 289.89L881.78 266.71C887.48 270.763 894.193 274.12 901.92 276.78C909.773 279.313 917.69 280.58 925.67 280.58C931.75 280.58 936.626 280.01 940.3 278.87C944.1 277.603 946.886 275.893 948.66 273.74C950.433 271.587 951.32 269.117 951.32 266.33C951.32 262.783 949.926 259.997 947.14 257.97C944.353 255.817 940.68 254.107 936.12 252.84C931.56 251.447 926.493 250.18 920.92 249.04C915.473 247.773 909.963 246.253 904.39 244.48C898.943 242.707 893.94 240.427 889.38 237.64C884.82 234.853 881.083 231.18 878.17 226.62C875.383 222.06 873.99 216.233 873.99 209.14C873.99 201.54 876.016 194.637 880.07 188.43C884.25 182.097 890.456 177.093 898.69 173.42C907.05 169.62 917.5 167.72 930.04 167.72C938.4 167.72 946.633 168.733 954.74 170.76C962.846 172.66 970.003 175.573 976.21 179.5L966.71 202.87C960.503 199.323 954.296 196.727 948.09 195.08C941.883 193.307 935.803 192.42 929.85 192.42C923.896 192.42 919.02 193.117 915.22 194.51C911.42 195.903 908.696 197.74 907.05 200.02C905.403 202.173 904.58 204.707 904.58 207.62C904.58 211.04 905.973 213.827 908.76 215.98C911.546 218.007 915.22 219.653 919.78 220.92C924.34 222.187 929.343 223.453 934.79 224.72C940.363 225.987 945.873 227.443 951.32 229.09C956.893 230.737 961.96 232.953 966.52 235.74C971.08 238.527 974.753 242.2 977.54 246.76C980.453 251.32 981.91 257.083 981.91 264.05C981.91 271.523 979.82 278.363 975.64 284.57C971.46 290.777 965.19 295.78 956.83 299.58C948.596 303.38 938.146 305.28 925.48 305.28ZM1011.92 341.38C1006.6 341.38 1001.34 340.557 996.146 338.91C990.953 337.263 986.71 334.983 983.416 332.07L994.246 310.98C996.526 313.007 999.123 314.59 1002.04 315.73C1005.08 316.87 1008.05 317.44 1010.97 317.44C1015.15 317.44 1018.44 316.427 1020.85 314.4C1023.38 312.5 1025.66 309.27 1027.69 304.71L1033.01 292.17L1035.29 288.94L1071.96 200.78H1100.46L1054.29 309.27C1050.99 317.503 1047.19 323.963 1042.89 328.65C1038.71 333.337 1034.02 336.63 1028.83 338.53C1023.76 340.43 1018.12 341.38 1011.92 341.38ZM1029.4 306.99L983.796 200.78H1014.39L1049.73 286.28L1029.4 306.99ZM1174.68 199.26C1182.79 199.26 1190.01 200.907 1196.34 204.2C1202.8 207.367 1207.87 212.307 1211.54 219.02C1215.21 225.607 1217.05 234.093 1217.05 244.48V303H1187.41V249.04C1187.41 240.807 1185.57 234.727 1181.9 230.8C1178.35 226.873 1173.29 224.91 1166.7 224.91C1162.01 224.91 1157.77 225.923 1153.97 227.95C1150.3 229.85 1147.38 232.827 1145.23 236.88C1143.2 240.933 1142.19 246.127 1142.19 252.46V303H1112.55V200.78H1140.86V229.09L1135.54 220.54C1139.21 213.7 1144.47 208.443 1151.31 204.77C1158.15 201.097 1165.94 199.26 1174.68 199.26ZM1294.06 304.52C1283.04 304.52 1273.22 302.303 1264.61 297.87C1256 293.31 1249.22 287.04 1244.28 279.06C1239.47 271.08 1237.06 262.023 1237.06 251.89C1237.06 241.63 1239.47 232.573 1244.28 224.72C1249.22 216.74 1256 210.533 1264.61 206.1C1273.22 201.54 1283.04 199.26 1294.06 199.26C1304.83 199.26 1314.2 201.54 1322.18 206.1C1330.16 210.533 1336.05 216.93 1339.85 225.29L1316.86 237.64C1314.2 232.827 1310.84 229.28 1306.79 227C1302.86 224.72 1298.56 223.58 1293.87 223.58C1288.8 223.58 1284.24 224.72 1280.19 227C1276.14 229.28 1272.91 232.51 1270.5 236.69C1268.22 240.87 1267.08 245.937 1267.08 251.89C1267.08 257.843 1268.22 262.91 1270.5 267.09C1272.91 271.27 1276.14 274.5 1280.19 276.78C1284.24 279.06 1288.8 280.2 1293.87 280.2C1298.56 280.2 1302.86 279.123 1306.79 276.97C1310.84 274.69 1314.2 271.08 1316.86 266.14L1339.85 278.68C1336.05 286.913 1330.16 293.31 1322.18 297.87C1314.2 302.303 1304.83 304.52 1294.06 304.52Z" fill="white"/>
<g filter="url(#filter0_f_193_2)">
<path d="M496.77 303V170H561.75C578.47 170 591.01 173.167 599.37 179.5C607.857 185.833 612.1 194.193 612.1 204.58C612.1 211.547 610.39 217.627 606.97 222.82C603.55 227.887 598.863 231.813 592.91 234.6C586.957 237.387 580.117 238.78 572.39 238.78L576 230.99C584.36 230.99 591.77 232.383 598.23 235.17C604.69 237.83 609.693 241.82 613.24 247.14C616.913 252.46 618.75 258.983 618.75 266.71C618.75 278.11 614.253 287.04 605.26 293.5C596.267 299.833 583.03 303 565.55 303H496.77ZM527.36 279.82H563.27C571.25 279.82 577.267 278.553 581.32 276.02C585.5 273.36 587.59 269.18 587.59 263.48C587.59 257.907 585.5 253.79 581.32 251.13C577.267 248.343 571.25 246.95 563.27 246.95H525.08V224.53H557.95C565.423 224.53 571.123 223.263 575.05 220.73C579.103 218.07 581.13 214.08 581.13 208.76C581.13 203.567 579.103 199.703 575.05 197.17C571.123 194.51 565.423 193.18 557.95 193.18H527.36V279.82ZM690.693 304.52C679.04 304.52 668.78 302.24 659.913 297.68C651.173 293.12 644.397 286.913 639.583 279.06C634.77 271.08 632.363 262.023 632.363 251.89C632.363 241.63 634.707 232.573 639.393 224.72C644.207 216.74 650.73 210.533 658.963 206.1C667.197 201.54 676.507 199.26 686.893 199.26C696.9 199.26 705.893 201.413 713.873 205.72C721.98 209.9 728.377 215.98 733.063 223.96C737.75 231.813 740.093 241.25 740.093 252.27C740.093 253.41 740.03 254.74 739.903 256.26C739.777 257.653 739.65 258.983 739.523 260.25H656.493V242.96H723.943L712.543 248.09C712.543 242.77 711.467 238.147 709.313 234.22C707.16 230.293 704.183 227.253 700.383 225.1C696.583 222.82 692.15 221.68 687.083 221.68C682.017 221.68 677.52 222.82 673.593 225.1C669.793 227.253 666.817 230.357 664.663 234.41C662.51 238.337 661.433 243.023 661.433 248.47V253.03C661.433 258.603 662.637 263.543 665.043 267.85C667.577 272.03 671.06 275.26 675.493 277.54C680.053 279.693 685.373 280.77 691.453 280.77C696.9 280.77 701.65 279.947 705.703 278.3C709.883 276.653 713.683 274.183 717.103 270.89L732.873 287.99C728.187 293.31 722.297 297.427 715.203 300.34C708.11 303.127 699.94 304.52 690.693 304.52ZM810.556 304.52C798.903 304.52 788.643 302.24 779.776 297.68C771.036 293.12 764.26 286.913 759.446 279.06C754.633 271.08 752.226 262.023 752.226 251.89C752.226 241.63 754.57 232.573 759.256 224.72C764.07 216.74 770.593 210.533 778.826 206.1C787.06 201.54 796.37 199.26 806.756 199.26C816.763 199.26 825.756 201.413 833.736 205.72C841.843 209.9 848.24 215.98 852.926 223.96C857.613 231.813 859.956 241.25 859.956 252.27C859.956 253.41 859.893 254.74 859.766 256.26C859.64 257.653 859.513 258.983 859.386 260.25H776.356V242.96H843.806L832.406 248.09C832.406 242.77 831.33 238.147 829.176 234.22C827.023 230.293 824.046 227.253 820.246 225.1C816.446 222.82 812.013 221.68 806.946 221.68C801.88 221.68 797.383 222.82 793.456 225.1C789.656 227.253 786.68 230.357 784.526 234.41C782.373 238.337 781.296 243.023 781.296 248.47V253.03C781.296 258.603 782.5 263.543 784.906 267.85C787.44 272.03 790.923 275.26 795.356 277.54C799.916 279.693 805.236 280.77 811.316 280.77C816.763 280.77 821.513 279.947 825.566 278.3C829.746 276.653 833.546 274.183 836.966 270.89L852.736 287.99C848.05 293.31 842.16 297.427 835.066 300.34C827.973 303.127 819.803 304.52 810.556 304.52ZM925.48 305.28C914.84 305.28 904.643 303.887 894.89 301.1C885.136 298.187 877.283 294.45 871.33 289.89L881.78 266.71C887.48 270.763 894.193 274.12 901.92 276.78C909.773 279.313 917.69 280.58 925.67 280.58C931.75 280.58 936.626 280.01 940.3 278.87C944.1 277.603 946.886 275.893 948.66 273.74C950.433 271.587 951.32 269.117 951.32 266.33C951.32 262.783 949.926 259.997 947.14 257.97C944.353 255.817 940.68 254.107 936.12 252.84C931.56 251.447 926.493 250.18 920.92 249.04C915.473 247.773 909.963 246.253 904.39 244.48C898.943 242.707 893.94 240.427 889.38 237.64C884.82 234.853 881.083 231.18 878.17 226.62C875.383 222.06 873.99 216.233 873.99 209.14C873.99 201.54 876.016 194.637 880.07 188.43C884.25 182.097 890.456 177.093 898.69 173.42C907.05 169.62 917.5 167.72 930.04 167.72C938.4 167.72 946.633 168.733 954.74 170.76C962.846 172.66 970.003 175.573 976.21 179.5L966.71 202.87C960.503 199.323 954.296 196.727 948.09 195.08C941.883 193.307 935.803 192.42 929.85 192.42C923.896 192.42 919.02 193.117 915.22 194.51C911.42 195.903 908.696 197.74 907.05 200.02C905.403 202.173 904.58 204.707 904.58 207.62C904.58 211.04 905.973 213.827 908.76 215.98C911.546 218.007 915.22 219.653 919.78 220.92C924.34 222.187 929.343 223.453 934.79 224.72C940.363 225.987 945.873 227.443 951.32 229.09C956.893 230.737 961.96 232.953 966.52 235.74C971.08 238.527 974.753 242.2 977.54 246.76C980.453 251.32 981.91 257.083 981.91 264.05C981.91 271.523 979.82 278.363 975.64 284.57C971.46 290.777 965.19 295.78 956.83 299.58C948.596 303.38 938.146 305.28 925.48 305.28ZM1011.92 341.38C1006.6 341.38 1001.34 340.557 996.146 338.91C990.953 337.263 986.71 334.983 983.416 332.07L994.246 310.98C996.526 313.007 999.123 314.59 1002.04 315.73C1005.08 316.87 1008.05 317.44 1010.97 317.44C1015.15 317.44 1018.44 316.427 1020.85 314.4C1023.38 312.5 1025.66 309.27 1027.69 304.71L1033.01 292.17L1035.29 288.94L1071.96 200.78H1100.46L1054.29 309.27C1050.99 317.503 1047.19 323.963 1042.89 328.65C1038.71 333.337 1034.02 336.63 1028.83 338.53C1023.76 340.43 1018.12 341.38 1011.92 341.38ZM1029.4 306.99L983.796 200.78H1014.39L1049.73 286.28L1029.4 306.99ZM1174.68 199.26C1182.79 199.26 1190.01 200.907 1196.34 204.2C1202.8 207.367 1207.87 212.307 1211.54 219.02C1215.21 225.607 1217.05 234.093 1217.05 244.48V303H1187.41V249.04C1187.41 240.807 1185.57 234.727 1181.9 230.8C1178.35 226.873 1173.29 224.91 1166.7 224.91C1162.01 224.91 1157.77 225.923 1153.97 227.95C1150.3 229.85 1147.38 232.827 1145.23 236.88C1143.2 240.933 1142.19 246.127 1142.19 252.46V303H1112.55V200.78H1140.86V229.09L1135.54 220.54C1139.21 213.7 1144.47 208.443 1151.31 204.77C1158.15 201.097 1165.94 199.26 1174.68 199.26ZM1294.06 304.52C1283.04 304.52 1273.22 302.303 1264.61 297.87C1256 293.31 1249.22 287.04 1244.28 279.06C1239.47 271.08 1237.06 262.023 1237.06 251.89C1237.06 241.63 1239.47 232.573 1244.28 224.72C1249.22 216.74 1256 210.533 1264.61 206.1C1273.22 201.54 1283.04 199.26 1294.06 199.26C1304.83 199.26 1314.2 201.54 1322.18 206.1C1330.16 210.533 1336.05 216.93 1339.85 225.29L1316.86 237.64C1314.2 232.827 1310.84 229.28 1306.79 227C1302.86 224.72 1298.56 223.58 1293.87 223.58C1288.8 223.58 1284.24 224.72 1280.19 227C1276.14 229.28 1272.91 232.51 1270.5 236.69C1268.22 240.87 1267.08 245.937 1267.08 251.89C1267.08 257.843 1268.22 262.91 1270.5 267.09C1272.91 271.27 1276.14 274.5 1280.19 276.78C1284.24 279.06 1288.8 280.2 1293.87 280.2C1298.56 280.2 1302.86 279.123 1306.79 276.97C1310.84 274.69 1314.2 271.08 1316.86 266.14L1339.85 278.68C1336.05 286.913 1330.16 293.31 1322.18 297.87C1314.2 302.303 1304.83 304.52 1294.06 304.52Z" fill="white"/>
</g>
<defs>
<filter id="filter0_f_193_2" x="476.77" y="147.72" width="883.081" height="213.66" filterUnits="userSpaceOnUse" color-interpolation-filters="sRGB">
<feFlood flood-opacity="0" result="BackgroundImageFix"/>
<feBlend mode="normal" in="SourceGraphic" in2="BackgroundImageFix" result="shape"/>
<feGaussianBlur stdDeviation="10" result="effect1_foregroundBlur_193_2"/>
</filter>
</defs>
</svg>
